<svg width="7" height="7" viewBox="0 0 7 7" fill="none" xmlns="http://www.w3.org/2000/svg">
<g clip-path="url(#clip0_144_252)">
<rect x="1" y="1" width="5" height="5" fill="#4285F4"/>
<rect x="2" width="1" height="1" fill="#533A38"/>
<rect x="4" width="1" height="1" fill="#533A38"/>
<rect x="2" y="6" width="1" height="1" fill="#533A38"/>
<rect x="4" y="6" width="1" height="1" fill="#533A38"/>
<rect x="1" y="1" width="1" height="1" fill="#533A38"/>
<rect x="3" y="1" width="1" height="1" fill="#533A38"/>
<rect x="6" y="2" width="1" height="1" fill="#533A38"/>
<rect x="5" y="3" width="1" height="1" fill="#533A38"/>
<rect x="5" y="3" width="1" height="1" fill="#533A38"/>
<rect x="1" y="3" width="1" height="1" fill="#533A38"/>
<rect x="6" y="4" width="1" height="1" fill="#533A38"/>
<rect y="2" width="1" height="1" fill="#533A38"/>
<rect y="4" width="1" height="1" fill="#533A38"/>
<rect x="5" y="1" width="1" height="1" fill="#533A38"/>
<rect x="1" y="5" width="1" height="1" fill="#533A38"/>
<rect x="3" y="5" width="1" height="1" fill="#533A38"/>
<rect x="5" y="5" width="1" height="1" fill="#533A38"/>
</g>
<defs>
<clipPath id="clip0_144_252">
<rect width="7" height="7" fill="white"/>
</clipPath>
</defs>
</svg>
